<svg width="201" height="228" viewBox="0 0 201 228" fill="none" xmlns="http://www.w3.org/2000/svg">
<path fill-rule="evenodd" clip-rule="evenodd" d="M114.458 204.872C115.285 205.255 116.044 205.668 116.697 206.101C121.643 209.374 123.908 215.115 122.525 220.888C121.121 226.754 121.055 229.436 128.529 227.231C133.894 225.65 140.933 219.75 146.176 203.153C146.576 201.888 147.284 200.156 148.217 198.12C137.774 202.055 126.362 204.38 114.458 204.87V204.872Z" fill="#051223"/>
<path fill-rule="evenodd" clip-rule="evenodd" d="M47.2604 32.6581C47.6907 29.3923 47.1599 25.2101 43.9069 20.6648C37.4666 11.6639 37.9778 5.19376 40.4399 0.600337C40.6606 0.186929 41.0844 -0.0383676 41.5497 0.00537929C42.015 0.0491262 42.3886 0.353167 42.5284 0.799385C43.1816 2.89924 44.4618 6.02932 46.7142 8.13792C46.7688 8.18823 46.8256 8.24073 46.8868 8.29323C46.9458 8.34572 47.0113 8.40041 47.0768 8.45509L47.2844 8.6257L47.5094 8.80288L47.7475 8.98661C50.2686 10.8765 52.8137 12.5498 55.2299 14.6037C60.4294 19.0112 65.6288 25.2867 64.0843 33.5702C64.0471 33.7758 64.0034 33.9814 63.9576 34.1892V34.2023L63.9532 34.2111V34.2198C63.8986 34.4429 63.844 34.6682 63.785 34.8957L63.7762 34.9263C63.6495 35.3988 63.501 35.8756 63.3284 36.359C69.6551 36.5712 73.9064 38.4501 76.8054 40.8978L76.9911 41.0553L77.0436 41.1012L77.0523 41.1078L77.0676 41.1209L77.2336 41.2696L77.2773 41.309L77.2948 41.3243L77.5045 41.5168L77.5285 41.5409L77.7011 41.7071L77.7252 41.7312C77.8672 41.869 78.007 42.0089 78.1424 42.1489L78.149 42.1577L78.1555 42.1642L78.2036 42.2146L78.3412 42.3589L78.3653 42.3852L78.3893 42.4114L78.5247 42.5602L78.5684 42.6083L78.5772 42.617L78.7607 42.8226L78.7694 42.8336L78.7847 42.8533L78.9638 43.0632L78.9879 43.0917L79.1364 43.2732L79.1561 43.2973L79.1845 43.3345L79.3309 43.516L79.3418 43.5313L79.3483 43.5401C79.4707 43.6954 79.5887 43.8507 79.7044 44.0104L79.877 44.251L79.8858 44.2619L80.0168 44.4522L80.0452 44.496L80.0605 44.5156L80.1457 44.6425C80.3096 44.8875 80.4647 45.1347 80.6154 45.384C81.0655 46.1365 81.4587 46.9173 81.7995 47.7223L81.8825 47.9235C81.9939 48.1926 82.0966 48.466 82.1949 48.7394L82.267 48.945L82.3369 49.1528C82.4047 49.3606 82.4702 49.5684 82.5335 49.7784C82.5751 49.9184 82.6166 50.0584 82.6537 50.1984L82.7105 50.4105C82.7673 50.6227 82.8197 50.8349 82.8678 51.0492C82.9006 51.1914 82.9333 51.3358 82.9639 51.478L83.0076 51.6923L83.0491 51.9089L83.0884 52.1254C83.1147 52.2698 83.1387 52.4141 83.1605 52.5607L83.1933 52.7794L83.2261 52.9982L83.2545 53.2169C83.2741 53.3634 83.2916 53.51 83.3069 53.6566L83.3309 53.8775L83.3528 54.0984L83.3703 54.3193L83.3877 54.5402L83.403 54.7633L83.4161 54.9843L83.4271 55.2074L83.4358 55.4305L83.4424 55.6536L83.4467 55.8767V56.0998H83.4489V56.5482L83.4445 56.7713L83.4402 56.9944L83.4336 57.2197L83.4249 57.4428L83.414 57.6681L83.3987 57.8912L83.3834 58.1144C83.0469 62.8018 82.3369 67.3974 86.7302 70.9388C87.0863 71.2253 87.2327 71.6715 87.1169 72.1155C87.0011 72.5574 86.656 72.8746 86.2037 72.9489C85.603 73.0495 84.8646 73.0277 83.9994 72.7499C75.6629 70.0966 75.2521 59.0374 62.5856 53.4969C62.4698 53.4466 62.3518 53.3963 62.2317 53.3503H62.2251L62.0897 53.2956L62.0744 53.2891L61.9717 53.2519L61.8931 53.2235L61.7969 53.1906L61.7249 53.1666L61.6047 53.1272L61.5523 53.1097L61.4452 53.0769L61.3163 53.0397L61.2814 53.0288C61.1656 52.996 61.0454 52.9632 60.9275 52.9325L60.9034 52.9282L60.8794 52.9216C52.5166 50.883 46.393 52.5279 41.5191 59.4093C29.1344 76.8971 37.4054 100.157 58.8455 109.296C62.1203 110.692 65.1678 111.315 68.7266 111.315H192.727C193.937 111.315 194.968 112.035 195.388 113.172C195.807 114.309 195.49 115.528 194.571 116.315L159.643 146.199C156.691 148.723 153.613 150.963 150.712 153.439C140.101 162.492 134.928 173.401 132.686 178.13C132.232 179.09 131.902 179.785 131.716 180.074C127.618 186.507 123.727 190.838 120.19 193.679C115.834 197.177 112.057 198.371 109.112 198.443C105.772 198.527 104.317 198.181 104.065 197.418C103.773 196.534 104.616 194.771 105.931 192.345C106.923 190.512 107.517 188.568 107.722 186.61C107.93 184.619 107.733 182.618 107.141 180.711L106.783 179.558L105.662 179.984C99.3181 182.393 92.0695 184.409 83.9339 185.593C75.783 186.778 66.7452 187.13 56.8378 186.214C55.3916 186.081 53.8842 185.938 52.1976 185.748L52.1212 185.739L52.0403 185.728L51.9551 185.717L51.8678 185.707L51.776 185.693L51.6799 185.68L51.5816 185.667L51.4789 185.652L51.374 185.637L51.2648 185.619L51.1534 185.602L51.0376 185.584L50.9196 185.564L50.7995 185.545L50.6749 185.523L50.5482 185.501L50.4193 185.479L50.2883 185.457L50.155 185.433L50.0196 185.409L49.8819 185.385L49.7443 185.359L49.6045 185.332L49.4625 185.306L49.3205 185.278L49.1763 185.249L49.0299 185.221L48.8835 185.192L48.735 185.162L48.5864 185.131L48.4379 185.101L48.2871 185.07L48.1364 185.039L47.9857 185.007L47.8371 184.974L47.6864 184.941L47.5356 184.908L47.3849 184.875L47.2363 184.843L47.0878 184.81L46.9392 184.775L46.7907 184.74L46.6421 184.705H46.6399L46.4935 184.67L46.3472 184.635H46.345L46.2008 184.6L46.0566 184.565L45.9146 184.53L45.7748 184.495H45.7726L45.6328 184.46L45.4952 184.423L45.3597 184.388H45.3575L45.2243 184.353L45.0932 184.315H45.091L44.9621 184.28H44.9599L44.8332 184.243L44.7065 184.208H44.7043L44.582 184.171L44.4618 184.136L44.3439 184.101L44.2303 184.066L44.1188 184.029L44.0118 183.994H44.0096L43.9047 183.959C31.2753 175.17 -10.9297 141.345 2.66529 90.5417C5.06184 81.5846 9.06192 73.4105 14.3487 66.1703C24.5401 52.2151 27.8192 51.0142 40.5251 41.9543C44.0883 39.4126 46.8125 36.534 47.3237 32.669L47.2604 32.6581ZM150.314 136.08C150.662 135.479 150.454 134.709 149.853 134.361C149.252 134.015 148.483 134.221 148.138 134.822C147.791 135.424 147.998 136.194 148.597 136.539C149.198 136.887 149.967 136.682 150.314 136.08ZM79.3462 43.5379L79.7023 44.0082C79.5865 43.8507 79.4685 43.6932 79.3462 43.5379Z" fill="#051223"/>
<path fill-rule="evenodd" clip-rule="evenodd" d="M105.54 185.07C103.842 185.066 102.197 184.989 100.618 184.845C102.094 185.144 103.744 185.35 105.533 185.455C105.524 185.759 105.502 186.065 105.472 186.371C105.304 187.979 104.819 189.589 104.008 191.122C97.7994 191.374 91.9992 191.079 86.8872 190.512C91.2346 191.582 96.9103 192.306 103.348 192.369C102.127 194.736 101.446 196.595 101.907 198.074C96.2156 197.997 90.6884 197.564 85.406 196.98C90.4307 198.216 96.4122 199.187 102.977 199.568C104.104 200.397 106.066 200.775 109.164 200.699C110.772 200.659 112.585 200.338 114.562 199.594C142.821 198.052 177.093 184.258 194.468 137.648C172.248 179.081 145.099 193.314 119.491 197.002C120.183 196.534 120.889 196.015 121.608 195.438C123.515 193.907 125.518 191.967 127.589 189.534C148.682 184.294 170.834 170.907 181.515 142.255C167.769 167.886 148.623 180.763 129.857 186.713C131.091 185.085 132.347 183.281 133.621 181.284C133.789 181.019 133.984 180.645 134.217 180.166C147.05 174.888 159.647 165.355 166.598 150.003C157.659 163.724 146.493 172.703 135.185 178.138C137.571 173.158 142.576 163.369 152.14 155.189C155.087 152.669 158.238 150.372 161.27 147.778L196.259 117.844C197.131 117.098 198.289 116.945 199.324 117.44C200.36 117.934 200.969 118.931 200.938 120.077C200.838 123.886 200.637 128.324 200.235 132.068V132.073C200.036 133.917 199.77 135.752 199.429 137.576C199.095 139.372 198.682 141.183 198.195 143.01C192.165 165.535 175.848 183.029 154.336 193.098C132.762 203.199 105.972 205.837 79.0793 198.623C73.4538 197.114 68.0534 195.235 62.9042 193.028C59.4 191.525 56.0116 189.873 52.7456 188.08C54.004 188.213 55.3366 188.338 56.6321 188.458C66.7404 189.394 75.953 189.036 84.2525 187.83C92.0669 186.693 99.0818 184.805 105.282 182.537C105.454 183.37 105.542 184.221 105.542 185.074L105.54 185.07Z" fill="#D0D0D3"/>
<path d="M78.4424 97.1904V113.001H74.8486V102.327L73.4131 113.001H70.8643L69.3506 102.571V113.001H65.7568V97.1904H71.0791C71.2354 98.141 71.4014 99.2607 71.5771 100.55L72.1436 104.573L73.0811 97.1904H78.4424ZM91.4385 97.1904V107.757C91.4385 108.955 91.3994 109.798 91.3213 110.286C91.2432 110.768 91.012 111.266 90.6279 111.78C90.2438 112.288 89.736 112.675 89.1045 112.942C88.4795 113.203 87.7406 113.333 86.8877 113.333C85.9437 113.333 85.1104 113.177 84.3877 112.864C83.665 112.552 83.1247 112.145 82.7666 111.644C82.4085 111.142 82.1969 110.615 82.1318 110.062C82.0667 109.502 82.0342 108.33 82.0342 106.546V97.1904H86.1455V109.046C86.1455 109.736 86.1813 110.179 86.2529 110.374C86.3311 110.563 86.484 110.657 86.7119 110.657C86.9723 110.657 87.1383 110.553 87.21 110.345C87.2881 110.13 87.3271 109.629 87.3271 108.841V97.1904H91.4385ZM101.905 97.1904V100.354L98.8389 109.837H101.905V113.001H94.3271V110.706L97.4912 100.354H94.6982V97.1904H101.905ZM109.091 97.1904V113.001H104.979V97.1904H109.091ZM130.962 97.1904V113.001H127.368V102.327L125.933 113.001H123.384L121.87 102.571V113.001H118.276V97.1904H123.599C123.755 98.141 123.921 99.2607 124.097 100.55L124.663 104.573L125.601 97.1904H130.962ZM141.712 97.1904L144.065 113.001H139.856L139.651 110.159H138.177L137.933 113.001H133.675L135.765 97.1904H141.712ZM139.534 107.356C139.326 105.566 139.118 103.356 138.909 100.726C138.493 103.746 138.232 105.957 138.128 107.356H139.534ZM146.769 97.1904H149.679C151.619 97.1904 152.931 97.2653 153.614 97.415C154.304 97.5648 154.864 97.9489 155.294 98.5674C155.73 99.1794 155.948 100.159 155.948 101.507C155.948 102.737 155.795 103.564 155.489 103.987C155.183 104.41 154.581 104.664 153.683 104.749C154.496 104.951 155.043 105.221 155.323 105.56C155.603 105.898 155.776 106.211 155.841 106.497C155.912 106.777 155.948 107.555 155.948 108.831V113.001H152.13V107.747C152.13 106.901 152.062 106.377 151.925 106.175C151.795 105.973 151.446 105.872 150.88 105.872V113.001H146.769V97.1904ZM150.88 99.8955V103.411C151.342 103.411 151.664 103.349 151.847 103.226C152.035 103.095 152.13 102.682 152.13 101.985V101.116C152.13 100.615 152.039 100.286 151.856 100.13C151.681 99.9736 151.355 99.8955 150.88 99.8955ZM163.661 97.1904V113.001H159.55V97.1904H163.661ZM176.491 97.1904V113.001H172.888L170.749 105.813V113.001H167.312V97.1904H170.749L173.054 104.31V97.1904H176.491ZM180.151 97.1904H187.007V100.354H184.263V103.353H186.831V106.36H184.263V109.837H187.28V113.001H180.151V97.1904Z" fill="#051223"/>
</svg>
